PathFileType	4	(X/Y/Z)	OpenSim_Sub10_CSStiffKnee_Gyro.trc
DataRate	CameraRate	NumFrames	NumMarkers	Units	OrigDataRate	OrigDataStartFrame	OrigNumFrames
100	100	40	8	m	100	3066	8174
Frame#	Time	torso_imu_offset_imu	pelvis_imu_offset_imu	tibia_r_imu_offset_imu	femur_r_imu_offset_imu	tibia_l_imu_offset_imu	femur_l_imu_offset_imu	toes_r_imu_offset_imu	toes_l_imu_offset_imu
				X1	Y1	Z1	X2	Y2	Z2	X3	Y3	Z3	X4	Y4	Z4	X5	Y5	Z5	X6	Y6	Z6	X7	Y7	Z7	X8		Y8	Z8	

3066	30.65000000	-0.81620535	0.58769637	-0.52336026	-0.79957128	-0.55158536	0.15572951	-0.68606306	0.09933331	-2.06219900	-0.50322847	0.22949383	0.20123854	-1.49900659	-1.08160746	1.30159538	-0.14278635	-0.78546346	0.22312975	-0.03465765	-2.32492552	0.02911746	-0.89844026	-2.55556350	0.67582381
3067	30.66000000	-0.91646065	0.52549088	-0.53325523	-0.71594895	-0.41236340	0.10686979	-0.83238832	0.07497347	-2.22499976	-0.47560130	0.26935866	0.33807328	-0.74367695	-1.45719076	0.95057662	-0.23126332	-1.12580132	0.22890024	-0.13454236	-2.74721565	0.09413194	0.10898807	-2.61720634	1.33844972
3068	30.67000000	-0.97714858	0.36048421	-0.55610380	-0.48643326	-0.33033270	0.05377482	-0.95500891	0.03004800	-2.42986752	-0.41730920	0.29204252	0.53044752	-0.31423139	-1.24974030	0.82918722	-0.50399291	-1.35924242	0.13114139	-0.17245597	-3.30836409	0.05780140	0.10791710	-2.28052091	1.12748360
3069	30.68000000	-0.81093465	0.20327060	-0.55318280	-0.26000032	-0.34285179	-0.02997957	-1.12309537	-0.07767636	-2.59502728	-0.32638479	0.29931786	0.78222748	-0.77485604	-0.74417669	1.22288290	-0.74084624	-0.91890659	-0.04450113	0.02530673	-3.96578854	-0.13162691	-0.71668814	-1.75984431	0.62057258
3070	30.69000000	-0.49327461	0.13208327	-0.55945232	-0.10405948	-0.37931750	-0.15500614	-1.32492221	-0.21176975	-2.69038232	-0.26797701	0.31904255	1.09999205	-0.92983341	-0.47034376	1.56059321	-0.42677500	-0.21786943	-0.10549046	0.58324050	-4.63952056	-0.34591409	-1.75877395	-0.78774720	0.39945471
3071	30.70000000	-0.24330296	0.10115427	-0.56735517	-0.01121894	-0.45105178	-0.20194465	-1.44060215	-0.30316674	-2.79980481	-0.26456307	0.38901118	1.46230619	-1.04470003	-0.05989682	1.70104890	0.31756390	0.05291861	-0.09534543	0.62107553	-5.40848781	-0.56417007	-0.52245900	-0.47551609	0.21508743
3072	30.71000000	-0.17319930	0.10105525	-0.50705400	0.01932621	-0.50856111	-0.09510134	-1.45394966	-0.32976468	-2.89978816	-0.29904260	0.48749882	1.82461946	-0.85926494	0.13076346	1.70601393	0.72396316	0.03610407	-0.13514216	1.36988775	-5.60963059	-0.85596797	-0.27676503	-0.47678383	-0.01035294
3073	30.72000000	-0.27759906	0.07392341	-0.40666751	-0.09291197	-0.50089245	0.08653683	-1.27798476	-0.31532519	-2.89468344	-0.32257845	0.55686733	2.13261849	-0.49444552	-0.15830006	1.59302443	0.66032356	-0.02138543	-0.06744791	1.69069735	-6.19977305	-0.86691626	-0.22474381	-0.22821303	-0.15101254
3074	30.73000000	-0.42944540	0.05443999	-0.32759476	-0.34487987	-0.44386449	0.19862618	-0.79296959	-0.27229666	-2.87230278	-0.30000582	0.59860769	2.33316835	-0.57672351	-0.32628237	1.46854725	0.43841291	-0.06253304	0.10094188	0.00674122	-6.64740252	-0.58501275	0.16073803	-0.20948792	-0.19985684
3075	30.74000000	-0.49718136	0.11143205	-0.29004750	-0.61665845	-0.35006497	0.23158998	-0.21821346	-0.15356160	-3.00741145	-0.27083636	0.61164811	2.44070213	-0.92451162	-0.28672414	1.23059500	0.22003013	-0.05052596	0.38286100	-0.80445970	-5.78975911	-0.53528846	0.01516655	-0.17499926	-0.17261921
3076	30.75000000	-0.49283776	0.14153296	-0.20723273	-0.79809309	-0.24443829	0.22709276	0.02226435	-0.06970828	-3.24493246	-0.26595095	0.54816725	2.50076772	-1.06232317	-0.31594922	0.85238139	0.13759836	-0.07049855	0.72009425	-0.13387958	-5.48900926	-0.83309816	0.00346679	-0.12298938	-0.09971867
3077	30.76000000	-0.43607172	0.05321726	-0.10501308	-0.85328429	-0.12481882	0.21600902	-0.06960991	-0.13665454	-3.24986911	-0.28748951	0.35476996	2.54851656	-0.70332339	-0.30448869	0.58994290	0.30744532	-0.22514891	0.92480830	-0.19164834	-5.35376556	-1.13183501	-0.08322331	-0.07703021	-0.01411070
3078	30.77000000	-0.46937157	-0.05437541	-0.09582896	-0.82224271	0.01119070	0.19853564	-0.33749478	-0.29961890	-2.91089445	-0.42323507	0.06723608	2.57593127	0.04440648	-0.24916550	0.57004735	0.65657058	-0.44154259	1.03015160	-0.71403567	-4.92894246	-1.17839383	-0.14813155	-0.05506265	0.07894085
3079	30.78000000	-0.63309875	-0.05054944	-0.14572118	-0.75815819	0.12625108	0.16615042	-0.63573087	-0.40125904	-2.51260855	-0.65572454	-0.20155493	2.52957888	0.62617701	-0.38535371	0.65706952	0.98265393	-0.46883331	1.07145321	-0.60858029	-3.88773829	-1.18392305	-0.19565877	-0.02781025	0.13779898
3080	30.79000000	-0.78086564	-0.00764114	-0.18171243	-0.69627525	0.19436979	0.10534312	-0.58675821	-0.31804282	-2.23348614	-0.85146520	-0.33534499	2.43663010	0.90033650	-0.48269288	0.63374971	1.10228983	-0.29275536	1.14304592	-0.72076952	-1.97283316	-1.36145574	-0.21098407	-0.00094971	0.14592607
3081	30.80000000	-0.81576602	-0.00216250	-0.22544614	-0.62672168	0.21723201	0.04587864	0.08294714	-0.14040932	-2.05056749	-0.89407217	-0.34716989	2.31412923	0.94786417	-0.36990989	0.48241809	1.01000822	-0.14113966	1.27098567	-0.78868715	-0.34102724	-1.44163753	-0.21269024	-0.02619969	0.11425468
3082	30.81000000	-0.76392237	-0.04191083	-0.28176863	-0.55309263	0.21019284	0.01472761	0.76281619	0.01971630	-1.69940464	-0.70656353	-0.34048856	2.19250612	0.74386055	-0.24227782	0.36119504	0.76394284	-0.10110080	1.42086687	-0.43485627	0.28317243	-1.43586229	-0.11253794	-0.07610506	0.05101282
3083	30.82000000	-0.67984679	-0.10251891	-0.37279867	-0.49238284	0.19859028	0.01997316	0.56600822	-0.02721947	-1.11554349	-0.42880159	-0.32216638	2.14985541	0.42481395	-0.18820484	0.36148771	0.36317646	-0.07184527	1.48540309	-0.40592030	0.45274920	-1.37216433	0.01637515	-0.12610074	-0.02512662
3084	30.83000000	-0.63225020	-0.14757599	-0.43687933	-0.45035239	0.17770558	0.05544942	-0.64721295	-0.35802734	-0.40880171	-0.32206050	-0.22684317	2.22358545	0.14133122	-0.21894951	0.40700851	-0.09452855	-0.04499835	1.40328290	-0.65860187	0.87020710	-1.12524510	0.04695790	-0.17413392	-0.06581777
3085	30.84000000	-0.63484341	-0.17664017	-0.44239225	-0.43733567	0.11404468	0.10680875	-2.09626537	-0.70928738	0.30308896	-0.44766053	-0.08281967	2.36300382	-0.11894445	-0.25993161	0.39795545	-0.50611313	-0.06976352	1.29998524	-0.94943701	1.44314946	-0.78826582	0.03503744	-0.19134693	-0.06421186
3086	30.85000000	-0.62502743	-0.18499883	-0.42936767	-0.46584547	0.04864886	0.15057169	-2.85343678	-0.81888840	0.88863752	-0.65312667	0.02345744	2.45954368	-0.29106500	-0.23717357	0.34340149	-0.77863313	-0.16524006	1.22489237	-0.94332590	1.96457553	-0.47061034	-0.01001397	-0.18760003	-0.03440484
3087	30.86000000	-0.64678716	-0.20794483	-0.40297119	-0.52302702	0.01275477	0.19209131	-2.85566244	-0.70016312	1.33518466	-0.73633633	0.03907709	2.43335454	-0.22831861	-0.25829198	0.32686734	-0.86840154	-0.30614695	1.21031317	-0.75257188	2.38591070	-0.18279821	-0.05344905	-0.18921466	0.00668573
3088	30.87000000	-0.70987886	-0.23979239	-0.34812729	-0.59386739	0.01262570	0.23913873	-2.50448842	-0.52810163	1.76656192	-0.59899818	-0.04508849	2.27323687	0.00571914	-0.25780187	0.37151711	-0.84448485	-0.46010417	1.23012742	-0.68012625	2.73734292	0.08544598	-0.10297566	-0.15869499	0.05036030
3089	30.88000000	-0.72314188	-0.27654384	-0.28913379	-0.66736924	0.03251612	0.27394262	-2.01916087	-0.49636086	2.28892950	-0.32603927	-0.17556786	2.03251493	0.13829354	-0.26353806	0.42421605	-0.75778697	-0.58729369	1.22435490	-0.77838285	3.08446007	0.33093312	-0.17291365	-0.14785926	0.11203907
3090	30.89000000	-0.71489068	-0.29557184	-0.23661989	-0.73208519	0.06647525	0.28720180	-1.48484635	-0.61928065	2.83293321	-0.02663089	-0.27439280	1.79716550	0.15766306	-0.30727257	0.44581603	-0.63108365	-0.63846692	1.19607986	-1.02854729	3.41783990	0.52297276	-0.24353660	-0.11124658	0.16797280
3091	30.90000000	-0.73976084	-0.29763979	-0.17724951	-0.78298671	0.11348220	0.27648559	-1.01063703	-0.75505975	3.26687837	0.24590362	-0.32596167	1.61385611	0.07270531	-0.30875896	0.47140186	-0.50258321	-0.61497123	1.14901591	-1.21868459	3.73400190	0.62102114	-0.28996891	-0.07972821	0.21365687
3092	30.91000000	-0.75820153	-0.29697328	-0.15356034	-0.79925250	0.17335240	0.25050726	-0.64279753	-0.79139542	3.59153640	0.47157768	-0.32741210	1.47777660	-0.04964040	-0.34776721	0.52174003	-0.42176026	-0.56437136	1.08839848	-1.26732673	3.97562791	0.63735413	-0.30723518	-0.03226365	0.23521375
3093	30.92000000	-0.74861165	-0.29722358	-0.14646156	-0.78162617	0.24692645	0.21894241	-0.37129922	-0.72943435	3.86990724	0.66646197	-0.30223310	1.37605180	-0.13040374	-0.35894679	0.58087422	-0.40648911	-0.51096835	1.02599993	-1.32163823	4.13626646	0.63107839	-0.31057852	-0.00049180	0.24986092
3094	30.93000000	-0.73618746	-0.30119439	-0.11609561	-0.76120349	0.29257667	0.16993313	-0.15613894	-0.63067786	4.13539086	0.84551026	-0.27607329	1.29261975	-0.22795848	-0.29330508	0.58542185	-0.43394554	-0.47008868	0.97282735	-1.43993419	4.26978488	0.63436538	-0.30740355	0.00397826	0.25740035
3095	30.94000000	-0.74131333	-0.29312618	-0.06696786	-0.73190851	0.30126701	0.11926221	0.02571547	-0.55132737	4.41036852	1.00008025	-0.24271601	1.21446528	-0.30764183	-0.24751373	0.56394011	-0.43828911	-0.46259301	0.93519542	-1.52957859	4.43887426	0.63938046	-0.26591196	0.00286193	0.24831238
3096	30.95000000	-0.73056579	-0.29678646	-0.02786861	-0.68963661	0.28328328	0.07173801	0.37352897	-0.54512573	4.68754187	1.12223111	-0.21001743	1.11468798	-0.30642695	-0.23113266	0.59516454	-0.42128098	-0.48621993	0.91759049	-1.54018959	4.63426032	0.65788428	-0.21560851	0.00345281	0.23021191
3097	30.96000000	-0.69923384	-0.32060362	0.00377218	-0.64127149	0.26246708	0.03366626	1.12282668	-0.58628817	4.94331877	1.19149741	-0.17353855	0.99164092	-0.26373065	-0.21599929	0.64903045	-0.39552324	-0.50279609	0.92767796	-1.56768000	4.76885382	0.71514039	-0.17788228	-0.00712065	0.20650212
3098	30.97000000	-0.64649734	-0.34472611	0.04399342	-0.58479522	0.24245560	0.00465613	2.09328905	-0.64339702	5.13495027	1.19694362	-0.11882741	0.85827645	-0.23873687	-0.22078006	0.67368883	-0.36638582	-0.49817452	0.95977490	-1.64140370	4.77437992	0.81494927	-0.15265207	-0.02982978	0.19252353
3099	30.98000000	-0.60496760	-0.35984616	0.08042170	-0.54147225	0.20918423	-0.02595956	2.75075385	-0.60235709	5.25153291	1.12139672	-0.05005691	0.72149644	-0.20340807	-0.21571173	0.67703479	-0.33557836	-0.48385650	1.00905882	-1.64438890	4.63181658	0.93450227	-0.13800379	-0.05201880	0.17915862
3100	30.99000000	-0.56229300	-0.36947099	0.11417419	-0.51506124	0.16739532	-0.04331896	2.79531256	-0.37122920	5.31756529	0.92656522	0.00469105	0.58925468	-0.15506601	-0.19325055	0.70029753	-0.31391101	-0.46146109	1.04993190	-1.62899743	4.34462926	1.03210235	-0.09334260	-0.06056573	0.15569087
3101	31.00000000	-0.52246413	-0.35833391	0.14319310	-0.48054235	0.12231279	-0.05202360	2.33335923	0.03197942	5.47301931	0.59891118	0.03518418	0.47477275	-0.14574030	-0.16817703	0.74328258	-0.29104110	-0.43573090	1.06920160	-1.54040448	4.24997028	1.21206063	-0.06241867	-0.06490086	0.13413587
3102	31.01000000	-0.51932847	-0.31181501	0.13847012	-0.42921630	0.09243376	-0.05934333	1.60388116	0.46840471	5.78138122	0.19603659	0.02840142	0.38678737	-0.12909390	-0.15197126	0.76218809	-0.25807665	-0.44569422	1.08745326	-1.47438891	4.58916723	1.52485826	-0.04817277	-0.08102516	0.12985902
3103	31.02000000	-0.49508374	-0.22802289	0.14597023	-0.36353902	0.08135110	-0.06285937	0.94530613	0.69887623	6.02412714	-0.19502793	0.03817068	0.29506439	-0.13764286	-0.12789211	0.75671770	-0.25885747	-0.47247320	1.10476707	-1.20010311	4.91827393	1.87043500	-0.02623864	-0.09298175	0.12799794
3104	31.03000000	-0.42425795	-0.12340476	0.16451556	-0.29644161	0.05035937	-0.05910407	0.68600207	0.58895654	5.89919348	-0.55150225	0.12566178	0.17221615	-0.14530765	-0.11046824	0.78436773	-0.30712155	-0.47912191	1.09135953	-0.64008457	4.92540135	2.27660851	-0.01633140	-0.11688665	0.13147945
3105	31.04000000	-0.35620021	-0.07837507	0.17879006	-0.22704678	-0.01361164	-0.05549158	0.79724238	0.34458092	5.31545923	-0.90208313	0.26081530	0.04076998	-0.14221131	-0.08360737	0.83886153	-0.32939487	-0.44953583	1.04517705	-0.47797764	4.74165413	2.69525952	0.00074410	-0.14305861	0.13451970
